<svg id="Layer_1" data-name="Layer 1" xmlns="http://www.w3.org/2000/svg" viewBox="0 0 24 24"><defs><style>.cls-1{fill:#fff;}</style></defs><title>ramdan</title><path class="cls-1" d="M12,24A12,12,0,1,1,15,.37a.28.28,0,0,1,.21.31.26.26,0,0,1-.29.24h-.3A8.37,8.37,0,1,0,23,9.29q0-.32,0-.63a.28.28,0,0,1,.54-.1A12,12,0,0,1,12,24ZM12,.56A11.44,11.44,0,1,0,23.44,12q0-.56-.05-1.1A8.93,8.93,0,1,1,12.64.58Z" transform="translate(0)"/><path class="cls-1" d="M1.91,12a.25.25,0,1,0-.5,0,9.5,9.5,0,0,0,5,8.35.25.25,0,0,0,.12,0,.25.25,0,0,0,.12-.47A9,9,0,0,1,1.91,12Zm0,0" transform="translate(0)"/></svg>